# xmcd
#
# Track frame offsets: 
#        150
#        17370
#        28608
#        45332
#        58403
#        71442
#        77779
#        93141
#        109965
#        122096
#        134473
#        147828
#        160115
#        170357
#
# Disc length: 2480 seconds
#
# Revision: 0
# Processed by: cddbd v1.5.2PL0 Copyright (c) Steve Scherf et al.
# Submitted via: ExactAudioCopy v0.95b4
#
DISCID=b309ae0e
DTITLE=Doug Quattlebaum - Softee Man Blues
DYEAR=1900
DGENRE=Blues
TTITLE0=Sweet Little Woman
TTITLE1=Whiskey Headed Woman
TTITLE2=Trouble In Mind
TTITLE3=You Is One Black Rat
TTITLE4=On My Way To School
TTITLE5=You Ain't No Good
TTITLE6=Come Back Blues
TTITLE7=Mama Don`t Allow Me To Stay Out All Night Long
TTITLE8=Big Leg Woman
TTITLE9=Love Me Baby
TTITLE10=Black Night Is Falling
TTITLE11=Baby Take A Chance With Me
TTITLE12=So Sweet
TTITLE13=Worried Mind Blues
EXTD=
EXTT0=
EXTT1=
EXTT2=
EXTT3=
EXTT4=
EXTT5=
EXTT6=
EXTT7=
EXTT8=
EXTT9=
EXTT10=
EXTT11=
EXTT12=
EXTT13=
PLAYORDER=
